<mxfile host="app.diagrams.net" modified="2021-08-21T04:11:45.559Z" agent="5.0 (Windows)" etag="gELiP_IKCudt8GeH9m9g" version="14.9.8" type="github">
  <diagram id="-d_wd3qj9GzYKClYFhyL" name="Page-1">
    <mxGraphModel dx="1635" dy="898" grid="1" gridSize="10" guides="1" tooltips="1" connect="1" arrows="1" fold="1" page="1" pageScale="1" pageWidth="850" pageHeight="1100" math="0" shadow="0">
      <root>
        <mxCell id="0" />
        <mxCell id="1" parent="0" />
        <mxCell id="zNg12Bm4H5D6vP4EcNNa-1" value="Act I: No Frontier" style="swimlane;" parent="1" vertex="1">
          <mxGeometry x="40" y="40" width="600" height="1200" as="geometry" />
        </mxCell>
        <mxCell id="LoIF5hxym2Nn-gZrOM74-50" style="edgeStyle=orthogonalEdgeStyle;rounded=0;orthogonalLoop=1;jettySize=auto;html=1;exitX=0.5;exitY=1;exitDx=0;exitDy=0;entryX=0.5;entryY=0;entryDx=0;entryDy=0;" parent="zNg12Bm4H5D6vP4EcNNa-1" source="LoIF5hxym2Nn-gZrOM74-2" target="LoIF5hxym2Nn-gZrOM74-28" edge="1">
          <mxGeometry relative="1" as="geometry" />
        </mxCell>
        <mxCell id="LoIF5hxym2Nn-gZrOM74-2" value="&lt;span data-lucid-type=&quot;application/vnd.lucid.text&quot; data-lucid-content=&quot;{&amp;#34;t&amp;#34;:&amp;#34;From FW Campaign: Katya decides you&#39;re not upstanding enough to be an official FW agent, recommends you to a Raider acquaintance for privateering.&amp;#34;,&amp;#34;m&amp;#34;:[{&amp;#34;s&amp;#34;:0,&amp;#34;n&amp;#34;:&amp;#34;a&amp;#34;,&amp;#34;v&amp;#34;:&amp;#34;center&amp;#34;},{&amp;#34;s&amp;#34;:0,&amp;#34;n&amp;#34;:&amp;#34;c&amp;#34;,&amp;#34;v&amp;#34;:&amp;#34;333333ff&amp;#34;,&amp;#34;e&amp;#34;:146}]}&quot;&gt;&lt;span style=&quot;text-align: center ; color: #333333&quot;&gt;From FW Campaign: Katya decides you&#39;re not upstanding enough to be an official FW agent, recommends you to a Raider acquaintance for privateering.&lt;/span&gt;&lt;/span&gt;" style="rounded=0;whiteSpace=wrap;html=1;" parent="zNg12Bm4H5D6vP4EcNNa-1" vertex="1">
          <mxGeometry x="10" y="40" width="180" height="150" as="geometry" />
        </mxCell>
        <mxCell id="LoIF5hxym2Nn-gZrOM74-30" style="edgeStyle=orthogonalEdgeStyle;rounded=0;orthogonalLoop=1;jettySize=auto;html=1;exitX=0.5;exitY=1;exitDx=0;exitDy=0;entryX=0.5;entryY=0;entryDx=0;entryDy=0;" parent="zNg12Bm4H5D6vP4EcNNa-1" source="LoIF5hxym2Nn-gZrOM74-3" target="LoIF5hxym2Nn-gZrOM74-28" edge="1">
          <mxGeometry relative="1" as="geometry" />
        </mxCell>
        <mxCell id="LoIF5hxym2Nn-gZrOM74-3" value="&lt;span data-lucid-type=&quot;application/vnd.lucid.text&quot; data-lucid-content=&quot;{&amp;#34;t&amp;#34;:&amp;#34;Bankrupt: Player runs out of money on a Raider-world, and the local militia refuse to enforce the bank&#39;s repossesion claim. You&#39;re now an outlaw by Republic law, flying stolen property.&amp;#34;,&amp;#34;m&amp;#34;:[{&amp;#34;s&amp;#34;:0,&amp;#34;n&amp;#34;:&amp;#34;a&amp;#34;,&amp;#34;v&amp;#34;:&amp;#34;center&amp;#34;},{&amp;#34;s&amp;#34;:0,&amp;#34;n&amp;#34;:&amp;#34;c&amp;#34;,&amp;#34;v&amp;#34;:&amp;#34;333333ff&amp;#34;,&amp;#34;e&amp;#34;:185}]}&quot;&gt;&lt;span style=&quot;text-align: center ; color: #333333&quot;&gt;Bankrupt: Player runs out of money on a Raider-world, and the local militia refuse to enforce the bank&#39;s repossession claim. You&#39;re now an outlaw by Republic law, flying stolen property.&lt;/span&gt;&lt;/span&gt;" style="rounded=0;whiteSpace=wrap;html=1;" parent="zNg12Bm4H5D6vP4EcNNa-1" vertex="1">
          <mxGeometry x="210" y="40" width="180" height="150" as="geometry" />
        </mxCell>
        <mxCell id="LoIF5hxym2Nn-gZrOM74-49" style="edgeStyle=orthogonalEdgeStyle;rounded=0;orthogonalLoop=1;jettySize=auto;html=1;exitX=0.5;exitY=1;exitDx=0;exitDy=0;entryX=0.5;entryY=0;entryDx=0;entryDy=0;" parent="zNg12Bm4H5D6vP4EcNNa-1" source="LoIF5hxym2Nn-gZrOM74-4" target="LoIF5hxym2Nn-gZrOM74-28" edge="1">
          <mxGeometry relative="1" as="geometry" />
        </mxCell>
        <mxCell id="LoIF5hxym2Nn-gZrOM74-4" value="&lt;span data-lucid-type=&quot;application/vnd.lucid.text&quot; data-lucid-content=&quot;{&amp;#34;t&amp;#34;:&amp;#34;You were the first one to hijack a valuable Lightspeed shipment, but Raider ships were lying in wait. Rather than outrun or fight them, you cooperated and handed over your prize/prey.&amp;#34;,&amp;#34;m&amp;#34;:[{&amp;#34;s&amp;#34;:0,&amp;#34;n&amp;#34;:&amp;#34;a&amp;#34;,&amp;#34;v&amp;#34;:&amp;#34;center&amp;#34;},{&amp;#34;s&amp;#34;:0,&amp;#34;n&amp;#34;:&amp;#34;c&amp;#34;,&amp;#34;v&amp;#34;:&amp;#34;333333ff&amp;#34;,&amp;#34;e&amp;#34;:183}]}&quot;&gt;&lt;span style=&quot;text-align: center ; color: #333333&quot;&gt;You were the first one to hijack a valuable Lightspeed shipment, but Raider ships were lying in wait. Rather than outrun or fight them, you cooperated and handed over your prize/prey.&lt;/span&gt;&lt;/span&gt;" style="rounded=0;whiteSpace=wrap;html=1;" parent="zNg12Bm4H5D6vP4EcNNa-1" vertex="1">
          <mxGeometry x="410" y="40" width="180" height="150" as="geometry" />
        </mxCell>
        <mxCell id="LoIF5hxym2Nn-gZrOM74-34" style="edgeStyle=orthogonalEdgeStyle;rounded=0;orthogonalLoop=1;jettySize=auto;html=1;exitX=0.5;exitY=1;exitDx=0;exitDy=0;entryX=0.5;entryY=0;entryDx=0;entryDy=0;" parent="zNg12Bm4H5D6vP4EcNNa-1" source="LoIF5hxym2Nn-gZrOM74-28" target="LoIF5hxym2Nn-gZrOM74-33" edge="1">
          <mxGeometry relative="1" as="geometry" />
        </mxCell>
        <mxCell id="LoIF5hxym2Nn-gZrOM74-28" value="&lt;span data-lucid-type=&quot;application/vnd.lucid.text&quot; data-lucid-content=&quot;{&amp;#34;t&amp;#34;:&amp;#34;Introduced to Amity Goodearth on Glaze&amp;#34;,&amp;#34;m&amp;#34;:[{&amp;#34;s&amp;#34;:0,&amp;#34;n&amp;#34;:&amp;#34;a&amp;#34;,&amp;#34;v&amp;#34;:&amp;#34;center&amp;#34;},{&amp;#34;s&amp;#34;:0,&amp;#34;n&amp;#34;:&amp;#34;c&amp;#34;,&amp;#34;v&amp;#34;:&amp;#34;333333ff&amp;#34;,&amp;#34;e&amp;#34;:38}]}&quot;&gt;&lt;span style=&quot;text-align: center ; color: #333333&quot;&gt;Introduced to Amity Goodearth on Glaze&lt;/span&gt;&lt;/span&gt;" style="shape=process;whiteSpace=wrap;html=1;backgroundOutline=1;" parent="zNg12Bm4H5D6vP4EcNNa-1" vertex="1">
          <mxGeometry y="260" width="600" height="60" as="geometry" />
        </mxCell>
        <mxCell id="LoIF5hxym2Nn-gZrOM74-41" style="edgeStyle=orthogonalEdgeStyle;rounded=0;orthogonalLoop=1;jettySize=auto;html=1;exitX=0;exitY=0.5;exitDx=0;exitDy=0;entryX=0.5;entryY=0;entryDx=0;entryDy=0;" parent="zNg12Bm4H5D6vP4EcNNa-1" source="LoIF5hxym2Nn-gZrOM74-33" target="LoIF5hxym2Nn-gZrOM74-36" edge="1">
          <mxGeometry relative="1" as="geometry" />
        </mxCell>
        <mxCell id="LoIF5hxym2Nn-gZrOM74-43" style="edgeStyle=orthogonalEdgeStyle;rounded=0;orthogonalLoop=1;jettySize=auto;html=1;exitX=1;exitY=0.5;exitDx=0;exitDy=0;" parent="zNg12Bm4H5D6vP4EcNNa-1" source="LoIF5hxym2Nn-gZrOM74-33" target="LoIF5hxym2Nn-gZrOM74-42" edge="1">
          <mxGeometry relative="1" as="geometry" />
        </mxCell>
        <mxCell id="LoIF5hxym2Nn-gZrOM74-33" value="Are you already an outlaw?" style="rhombus;whiteSpace=wrap;html=1;" parent="zNg12Bm4H5D6vP4EcNNa-1" vertex="1">
          <mxGeometry x="260" y="350" width="80" height="80" as="geometry" />
        </mxCell>
        <mxCell id="LoIF5hxym2Nn-gZrOM74-46" style="edgeStyle=orthogonalEdgeStyle;rounded=0;orthogonalLoop=1;jettySize=auto;html=1;exitX=1;exitY=0.5;exitDx=0;exitDy=0;entryX=0;entryY=0.5;entryDx=0;entryDy=0;" parent="zNg12Bm4H5D6vP4EcNNa-1" source="LoIF5hxym2Nn-gZrOM74-36" target="LoIF5hxym2Nn-gZrOM74-42" edge="1">
          <mxGeometry relative="1" as="geometry" />
        </mxCell>
        <mxCell id="LoIF5hxym2Nn-gZrOM74-36" value="Tasked with basic courier/smuggling tasks on behalf of the Raiders, as well as lookout duty on the fringes of Syndicate space; watch for juicy targets, gather rumors, report back." style="rounded=1;whiteSpace=wrap;html=1;" parent="zNg12Bm4H5D6vP4EcNNa-1" vertex="1">
          <mxGeometry x="30" y="440" width="240" height="100" as="geometry" />
        </mxCell>
        <mxCell id="LoIF5hxym2Nn-gZrOM74-42" value="&lt;div&gt;Informed that the Raiders will pay well for agricultural equipment &quot;liberated&quot; from Syndicate shipping.&lt;/div&gt;&lt;div&gt;&lt;br&gt;&lt;/div&gt;&lt;div&gt;Add special outfit to Lightspeed Basic fleets that weighs 10 tons and can be cashed in at Raider strongholds.&lt;/div&gt;&lt;div&gt;[fertilizer, tractors, etc]&lt;/div&gt;&lt;div&gt;Turn in enough to prove your worth&lt;br&gt;&lt;/div&gt;" style="rounded=1;whiteSpace=wrap;html=1;" parent="zNg12Bm4H5D6vP4EcNNa-1" vertex="1">
          <mxGeometry x="340" y="440" width="220" height="140" as="geometry" />
        </mxCell>
        <mxCell id="LoIF5hxym2Nn-gZrOM74-44" value="no" style="text;html=1;strokeColor=none;fillColor=none;align=center;verticalAlign=middle;whiteSpace=wrap;rounded=0;" parent="zNg12Bm4H5D6vP4EcNNa-1" vertex="1">
          <mxGeometry x="180" y="370" width="40" height="20" as="geometry" />
        </mxCell>
        <mxCell id="LoIF5hxym2Nn-gZrOM74-45" value="yes" style="text;html=1;strokeColor=none;fillColor=none;align=center;verticalAlign=middle;whiteSpace=wrap;rounded=0;" parent="zNg12Bm4H5D6vP4EcNNa-1" vertex="1">
          <mxGeometry x="385" y="370" width="40" height="20" as="geometry" />
        </mxCell>
        <mxCell id="LoIF5hxym2Nn-gZrOM74-47" value="alternatively" style="text;html=1;strokeColor=none;fillColor=none;align=center;verticalAlign=middle;whiteSpace=wrap;rounded=0;" parent="zNg12Bm4H5D6vP4EcNNa-1" vertex="1">
          <mxGeometry x="290" y="510" width="40" height="20" as="geometry" />
        </mxCell>
        <mxCell id="LoIF5hxym2Nn-gZrOM74-72" style="edgeStyle=orthogonalEdgeStyle;rounded=0;orthogonalLoop=1;jettySize=auto;html=1;exitX=1;exitY=0.5;exitDx=0;exitDy=0;" parent="zNg12Bm4H5D6vP4EcNNa-1" source="LoIF5hxym2Nn-gZrOM74-55" target="LoIF5hxym2Nn-gZrOM74-71" edge="1">
          <mxGeometry relative="1" as="geometry" />
        </mxCell>
        <mxCell id="LoIF5hxym2Nn-gZrOM74-74" style="edgeStyle=orthogonalEdgeStyle;rounded=0;orthogonalLoop=1;jettySize=auto;html=1;exitX=0;exitY=0.5;exitDx=0;exitDy=0;" parent="zNg12Bm4H5D6vP4EcNNa-1" source="LoIF5hxym2Nn-gZrOM74-55" target="LoIF5hxym2Nn-gZrOM74-73" edge="1">
          <mxGeometry relative="1" as="geometry" />
        </mxCell>
        <mxCell id="LoIF5hxym2Nn-gZrOM74-55" value="While cruising in the Republic you receive a transmission using Raider encryption; a man named Julius Pinch claims to be a friend of Amity and requires extraction from the North." style="rounded=0;whiteSpace=wrap;html=1;" parent="zNg12Bm4H5D6vP4EcNNa-1" vertex="1">
          <mxGeometry x="160" y="720" width="280" height="70" as="geometry" />
        </mxCell>
        <mxCell id="LoIF5hxym2Nn-gZrOM74-77" style="edgeStyle=orthogonalEdgeStyle;rounded=0;orthogonalLoop=1;jettySize=auto;html=1;exitX=0.5;exitY=1;exitDx=0;exitDy=0;entryX=0.5;entryY=0;entryDx=0;entryDy=0;" parent="zNg12Bm4H5D6vP4EcNNa-1" source="LoIF5hxym2Nn-gZrOM74-71" target="LoIF5hxym2Nn-gZrOM74-75" edge="1">
          <mxGeometry relative="1" as="geometry" />
        </mxCell>
        <mxCell id="LoIF5hxym2Nn-gZrOM74-71" value="&lt;div&gt;You return to Glaze to consult with the Raiders. Amity explains her old friendship with Pinch, and how he disappeared decades ago; she assumed him lost as the North became increasingly destabilized, and expresses surprise that he knew their current codes.&lt;/div&gt;&lt;div&gt;&lt;br&gt;&lt;/div&gt;&lt;div&gt;Amity offers to pull some strings to get you safe passage from the warlords of the North, though they&#39;re unlikely to honor it once you rescue Julius...&lt;br&gt;&lt;br&gt;Xalis offers an alternative. He&#39;s on terrible terms with the warlords and they&#39;ll treat you as a foe if you&#39;re seen flying with him, but he volunteers to fly alongside you, guns blazing, as you enact a fiery rescue. An unsubtle approach to be sure.&lt;br&gt;&lt;/div&gt;" style="rounded=1;whiteSpace=wrap;html=1;" parent="zNg12Bm4H5D6vP4EcNNa-1" vertex="1">
          <mxGeometry x="220" y="800" width="360" height="230" as="geometry" />
        </mxCell>
        <mxCell id="LoIF5hxym2Nn-gZrOM74-76" style="edgeStyle=orthogonalEdgeStyle;rounded=0;orthogonalLoop=1;jettySize=auto;html=1;exitX=0.5;exitY=1;exitDx=0;exitDy=0;entryX=0.5;entryY=0;entryDx=0;entryDy=0;" parent="zNg12Bm4H5D6vP4EcNNa-1" source="LoIF5hxym2Nn-gZrOM74-73" target="LoIF5hxym2Nn-gZrOM74-75" edge="1">
          <mxGeometry relative="1" as="geometry" />
        </mxCell>
        <mxCell id="LoIF5hxym2Nn-gZrOM74-73" value="You rocket off to the North immediately. Using connections and calling in favors is for nerds and losers." style="rounded=1;whiteSpace=wrap;html=1;" parent="zNg12Bm4H5D6vP4EcNNa-1" vertex="1">
          <mxGeometry x="60" y="880" width="120" height="90" as="geometry" />
        </mxCell>
        <mxCell id="LoIF5hxym2Nn-gZrOM74-75" value="Pinch is safely extracted, abandoning his Anarchist &quot;comrades&quot; to their fate. Flight from the North will be hot, regardless of Xalis serving as wingman or not. Pinch proves to have a few tricks up his sleeve if confronted by the Navy, apparently having access to &quot;stolen&quot; passcodes. " style="rounded=0;whiteSpace=wrap;html=1;" parent="zNg12Bm4H5D6vP4EcNNa-1" vertex="1">
          <mxGeometry x="40" y="1120" width="520" height="60" as="geometry" />
        </mxCell>
        <mxCell id="LoIF5hxym2Nn-gZrOM74-1" value="Act II: The Mountain" style="swimlane;startSize=23;" parent="1" vertex="1">
          <mxGeometry x="640" y="40" width="600" height="1200" as="geometry" />
        </mxCell>
        <mxCell id="LoIF5hxym2Nn-gZrOM74-5" value="Act IV: Unrest" style="swimlane;" parent="1" vertex="1">
          <mxGeometry x="1840" y="40" width="600" height="1200" as="geometry" />
        </mxCell>
        <mxCell id="LoIF5hxym2Nn-gZrOM74-9" value="Act V: Exile and Exodus" style="swimlane;" parent="1" vertex="1">
          <mxGeometry x="2440" y="40" width="600" height="1200" as="geometry" />
        </mxCell>
        <mxCell id="LoIF5hxym2Nn-gZrOM74-10" value="Act VI: Refuge and Rebellion" style="swimlane;" parent="1" vertex="1">
          <mxGeometry x="3040" y="40" width="600" height="1200" as="geometry" />
        </mxCell>
        <mxCell id="LoIF5hxym2Nn-gZrOM74-11" value="&lt;span data-lucid-type=&quot;application/vnd.lucid.text&quot; data-lucid-content=&quot;{&amp;#34;t&amp;#34;:&amp;#34;From FW Campaign: Katya decides you&#39;re not upstanding enough to be an official FW agent, recommends you to a Raider acquaintance for privateering.&amp;#34;,&amp;#34;m&amp;#34;:[{&amp;#34;s&amp;#34;:0,&amp;#34;n&amp;#34;:&amp;#34;a&amp;#34;,&amp;#34;v&amp;#34;:&amp;#34;center&amp;#34;},{&amp;#34;s&amp;#34;:0,&amp;#34;n&amp;#34;:&amp;#34;c&amp;#34;,&amp;#34;v&amp;#34;:&amp;#34;333333ff&amp;#34;,&amp;#34;e&amp;#34;:146}]}&quot;&gt;&lt;span style=&quot;text-align: center ; color: #333333&quot;&gt;From FW Campaign: Katya decides you&#39;re not upstanding enough to be an official FW agent, recommends you to a Raider acquaintance for privateering.&lt;/span&gt;&lt;/span&gt;" style="rounded=0;whiteSpace=wrap;html=1;" parent="LoIF5hxym2Nn-gZrOM74-10" vertex="1">
          <mxGeometry x="10" y="40" width="180" height="150" as="geometry" />
        </mxCell>
        <mxCell id="LoIF5hxym2Nn-gZrOM74-12" value="&lt;span data-lucid-type=&quot;application/vnd.lucid.text&quot; data-lucid-content=&quot;{&amp;#34;t&amp;#34;:&amp;#34;Bankrupt: Player runs out of money on a Raider-world, and the local militia refuse to enforce the bank&#39;s repossesion claim. You&#39;re now an outlaw by Republic law, flying stolen property.&amp;#34;,&amp;#34;m&amp;#34;:[{&amp;#34;s&amp;#34;:0,&amp;#34;n&amp;#34;:&amp;#34;a&amp;#34;,&amp;#34;v&amp;#34;:&amp;#34;center&amp;#34;},{&amp;#34;s&amp;#34;:0,&amp;#34;n&amp;#34;:&amp;#34;c&amp;#34;,&amp;#34;v&amp;#34;:&amp;#34;333333ff&amp;#34;,&amp;#34;e&amp;#34;:185}]}&quot;&gt;&lt;span style=&quot;text-align: center ; color: #333333&quot;&gt;Bankrupt: Player runs out of money on a Raider-world, and the local militia refuse to enforce the bank&#39;s repossession claim. You&#39;re now an outlaw by Republic law, flying stolen property.&lt;/span&gt;&lt;/span&gt;" style="rounded=0;whiteSpace=wrap;html=1;" parent="LoIF5hxym2Nn-gZrOM74-10" vertex="1">
          <mxGeometry x="210" y="40" width="180" height="150" as="geometry" />
        </mxCell>
        <mxCell id="LoIF5hxym2Nn-gZrOM74-13" value="&lt;span data-lucid-type=&quot;application/vnd.lucid.text&quot; data-lucid-content=&quot;{&amp;#34;t&amp;#34;:&amp;#34;You were the first one to hijack a valuable Lightspeed shipment, but Raider ships were lying in wait. Rather than outrun or fight them, you cooperated and handed over your prize/prey.&amp;#34;,&amp;#34;m&amp;#34;:[{&amp;#34;s&amp;#34;:0,&amp;#34;n&amp;#34;:&amp;#34;a&amp;#34;,&amp;#34;v&amp;#34;:&amp;#34;center&amp;#34;},{&amp;#34;s&amp;#34;:0,&amp;#34;n&amp;#34;:&amp;#34;c&amp;#34;,&amp;#34;v&amp;#34;:&amp;#34;333333ff&amp;#34;,&amp;#34;e&amp;#34;:183}]}&quot;&gt;&lt;span style=&quot;text-align: center ; color: #333333&quot;&gt;You were the first one to hijack a valuable Lightspeed shipment, but Raider ships were lying in wait. Rather than outrun or fight them, you cooperated and handed over your prize/prey.&lt;/span&gt;&lt;/span&gt;" style="rounded=0;whiteSpace=wrap;html=1;" parent="LoIF5hxym2Nn-gZrOM74-10" vertex="1">
          <mxGeometry x="410" y="40" width="180" height="150" as="geometry" />
        </mxCell>
        <mxCell id="LoIF5hxym2Nn-gZrOM74-14" value="Act VII: The Other War" style="swimlane;" parent="1" vertex="1">
          <mxGeometry x="3640" y="40" width="600" height="1200" as="geometry" />
        </mxCell>
        <mxCell id="LoIF5hxym2Nn-gZrOM74-15" value="Act VIII: Raider&#39;s End" style="swimlane;" parent="1" vertex="1">
          <mxGeometry x="4240" y="40" width="600" height="1200" as="geometry" />
        </mxCell>
        <mxCell id="LoIF5hxym2Nn-gZrOM74-16" value="Act III: The Legend of Blackheart" style="swimlane;" parent="1" vertex="1">
          <mxGeometry x="1240" y="40" width="600" height="1200" as="geometry" />
        </mxCell>
        <UserObject label="Civil war has come to the galaxy. And when there&#39;s civil war, there&#39;s a need to fight not just for tactical objectives, but the hearts and minds of your enemy&#39;s citizens. Where there&#39;s a need for that, there&#39;s a need for deniable assets who can do necessary dirty work without implicating the state that sponsors them. This is the context in which the player, a damn dirty pirate - who may or may not have a heart of gold - makes contact with the Raiders. What they find is a more tight-knit band of pirates than others they may have known, one which relies as much on one-another as they do the communities that they call home. This is, after all, the only way for an outlaw to survive these days without resorting to brutality." lucidchartObjectId="8Y6Zr4ODojf~" id="LoIF5hxym2Nn-gZrOM74-17">
          <mxCell style="html=1;overflow=block;blockSpacing=1;whiteSpace=wrap;;whiteSpace=wrap;fontSize=13;fontColor=#333333;align=center;spacing=9;strokeColor=#333333;strokeOpacity=100;fillOpacity=100;rounded=1;absoluteArcSize=1;arcSize=12;fillColor=#ffffff;strokeWidth=0.8;" parent="1" vertex="1">
            <mxGeometry x="40" y="1250" width="240" height="358" as="geometry" />
          </mxCell>
        </UserObject>
        <UserObject label="Julius Pinch presents himself as a &quot;freedom fighter of the North&quot;, and has in fact been helping arm and organize anarchist rebels - but only with the goal of maintaining the balance of power. In truth, he&#39;s an agent of Republic Intelligence, and has been re-tasked to infiltrate the Raiders and use them to destabilize the Free Worlds." lucidchartObjectId="m8k3n_C98is3" id="LoIF5hxym2Nn-gZrOM74-18">
          <mxCell style="html=1;overflow=block;blockSpacing=1;whiteSpace=wrap;;whiteSpace=wrap;fontSize=13;fontColor=#333333;align=center;spacing=3.8;strokeColor=#333333;strokeOpacity=100;fillOpacity=100;rounded=1;absoluteArcSize=1;arcSize=12;fillColor=#ffffff;strokeWidth=0.8;" parent="1" vertex="1">
            <mxGeometry x="290" y="1250" width="330" height="122" as="geometry" />
          </mxCell>
        </UserObject>
        <UserObject label="Amity Goodearth is the daughter of the legendary pirate Benjamin Blackheart, now deceased after disappearing from the galactic stage some decades ago. A pirate in her own time, she&#39;s now old and grey and employed as the Master at Arms to the Glaze militia. Amity spends her days instructing militia forces in anti-piracy technique and tactics - as well as guide some of the current generation of pirates in the age-old strategy of &quot;don&#39;t plunder your customers&quot;." lucidchartObjectId="Ohl3puxaSGho" id="LoIF5hxym2Nn-gZrOM74-19">
          <mxCell style="html=1;overflow=block;blockSpacing=1;whiteSpace=wrap;;whiteSpace=wrap;fontSize=13;fontColor=#333333;align=center;spacing=3.8;strokeColor=#333333;strokeOpacity=100;fillOpacity=100;rounded=1;absoluteArcSize=1;arcSize=12;fillColor=#ffffff;strokeWidth=0.8;" parent="1" vertex="1">
            <mxGeometry x="290" y="1378" width="330" height="152" as="geometry" />
          </mxCell>
        </UserObject>
        <UserObject label="Tensions in the South exist between the fringe farming worlds and the industrialized Rim. Though allied in the cause of independence, this doesn&#39;t entirely stop black market actions. Fertilizer is taken down to a rogue state - CCOR - who in turn process it into nerve gas which is then sold to pirates. Likewise, Syndicate shipping is plundered, partly out of economic necessity, partly out of spite towards the system that ensured these peoples&#39; poverty. The Republic is generally seen as corrupt and complicit, though unalligned merchants are generally left alone.&#xa;&#xa;The player becomes familiar with smuggling lanes, spacer legends, and Raider culture as they gain the trust off the old guard or ingratiate themselves among the discontented next generation." lucidchartObjectId="j46ZSv2MyBIx" id="LoIF5hxym2Nn-gZrOM74-20">
          <mxCell style="html=1;overflow=block;blockSpacing=1;whiteSpace=wrap;;whiteSpace=wrap;fontSize=13;fontColor=#333333;align=center;spacing=9;strokeColor=#333333;strokeOpacity=100;fillOpacity=100;rounded=1;absoluteArcSize=1;arcSize=12;fillColor=#ffffff;strokeWidth=0.8;" parent="1" vertex="1">
            <mxGeometry x="640" y="1250" width="240" height="407" as="geometry" />
          </mxCell>
        </UserObject>
        <UserObject label="As Rim planets begin to gain more power among the Free Worlds, the privateering Raiders are seen as a diplomatic liability and inferior to a professional navy. Although talks of replacing the militia with a professional fighting force are divisive, the industrialist worlds have enough support to finally declare the Raiders outlaws. This chapter occurs in this background context, as the Raiders reckon with the prospect of being forced from their homes or unwanted retirement. Tension grows between the frontier and industrialist planets of the Free Worlds, while on the fringe of the Orion arm the CCOR is facing crises of its own..." lucidchartObjectId="mk6ZjBzX4rbn" id="LoIF5hxym2Nn-gZrOM74-21">
          <mxCell style="html=1;overflow=block;blockSpacing=1;whiteSpace=wrap;;whiteSpace=wrap;fontSize=13;fontColor=#333333;align=center;spacing=3.8;verticalAlign=middle;strokeColor=#333333;strokeOpacity=100;fillOpacity=100;rounded=1;absoluteArcSize=1;arcSize=12;fillColor=#ffffff;strokeWidth=0.8;" parent="1" vertex="1">
            <mxGeometry x="1840" y="1250" width="240" height="299" as="geometry" />
          </mxCell>
        </UserObject>
        <UserObject label="The Raiders are finally ejected from their havens, bringing an end to the era of &quot;benevolent piracy&quot; in the South. Depending on their actions during the turbulent deliberations that led to their ejection, they may or may not be missed. Some Raiders join their more cutthroat southern neighbors, those that remain organized flee to the North during a major battle between Militia and Naval forces, relying on the commitment of patrol vessels to the front line to have any hope of making it to the lawless Far North in one piece." lucidchartObjectId="0o6ZieXDW3N7" id="LoIF5hxym2Nn-gZrOM74-22">
          <mxCell style="html=1;overflow=block;blockSpacing=1;whiteSpace=wrap;;whiteSpace=wrap;fontSize=13;fontColor=#333333;align=center;spacing=9;strokeColor=#333333;strokeOpacity=100;fillOpacity=100;rounded=1;absoluteArcSize=1;arcSize=12;fillColor=#ffffff;strokeWidth=0.8;" parent="1" vertex="1">
            <mxGeometry x="2440" y="1250" width="240" height="277" as="geometry" />
          </mxCell>
        </UserObject>
        <UserObject label="The Raiders find peace; or not. One way or another, their place in galactic history has come to an end and their society changed as they become something else." lucidchartObjectId="Hy6ZJN5gNOqD" id="LoIF5hxym2Nn-gZrOM74-23">
          <mxCell style="html=1;overflow=block;blockSpacing=1;whiteSpace=wrap;;whiteSpace=wrap;fontSize=13;fontColor=#333333;align=center;spacing=3.8;strokeColor=#333333;strokeOpacity=100;fillOpacity=100;rounded=1;absoluteArcSize=1;arcSize=12;fillColor=#ffffff;strokeWidth=0.8;" parent="1" vertex="1">
            <mxGeometry x="4240" y="1250" width="240" height="90" as="geometry" />
          </mxCell>
        </UserObject>
        <UserObject label="Blackheart&#39;s old ship is uncovered by the Raiders, and a non-functional JD and cloak salvaged. It comes to light that the parts they need to make this work are held by CMC and Lightspeed.&#xa;&#xa;While war with the Pug rages in the galactic heartland, another conflict flies under the radar in the Far North. The Raiders, Lightspeed, and CMC compete with one-another and the resident pirates over control of the North, and the xenoarchaeological sites that have been uncovered.&#xa;&#xa;As northern warlords fall in battle or have their attention diverted by the newcomers, their serfs begin to rise up and fight a war of independence, further complicating the network of alliances and enmities. " lucidchartObjectId="hP6ZYm4JRjCL" id="LoIF5hxym2Nn-gZrOM74-24">
          <mxCell style="html=1;overflow=block;blockSpacing=1;whiteSpace=wrap;;whiteSpace=wrap;fontSize=13;fontColor=#333333;align=center;spacing=9;strokeColor=#333333;strokeOpacity=100;fillOpacity=100;rounded=1;absoluteArcSize=1;arcSize=12;fillColor=#ffffff;strokeWidth=0.8;" parent="1" vertex="1">
            <mxGeometry x="3040" y="1250" width="240" height="374" as="geometry" />
          </mxCell>
        </UserObject>
        <UserObject label="The player finally assembles their xenotech outfits, gaining access to cloaking and a jump drive. They may keep this secret from the Raiders, or they may lend them this technology in order to alter the balance of power or allow for a final, secure retreat from all that might be hostile.&#xa;&#xa;Meanwhile, the Anarchists gain the upper hand and issue an ultimatum to the warring factions above their worlds. One way or another, this conflict is going to come to an end." lucidchartObjectId="vS6ZsESxR_rw" id="LoIF5hxym2Nn-gZrOM74-25">
          <mxCell style="html=1;overflow=block;blockSpacing=1;whiteSpace=wrap;;whiteSpace=wrap;fontSize=13;fontColor=#333333;align=center;spacing=9;strokeColor=#333333;strokeOpacity=100;fillOpacity=100;rounded=1;absoluteArcSize=1;arcSize=12;fillColor=#ffffff;strokeWidth=0.8;" parent="1" vertex="1">
            <mxGeometry x="3640" y="1250" width="240" height="245" as="geometry" />
          </mxCell>
        </UserObject>
        <UserObject label="Rumors swirl of a LIghtspeed courier carrying priceless cargo through Raider territory. Intel is gathered, an ambush planned, and sprung.&#xa;&#xa;The intel didn&#39;t account for CMC involvement. The player pursues the courier while Raiders engage its escorts, leading to a confrontation with a CMC underboss who executes the couriers to leave no witnesses; his escort engages the player while his flagship jumps away.&#xa;&#xa;After-action salvage recovers part of the cargo abandoned during the interrupted handoff: a black box containing the logs of Captain Blackheart, a legendary pirate. Though decryption proves difficult, hints begin to emerge that some of Blackheart&#39;s accomplishments aren&#39;t just tall tales - but were in fact aided by unknown technology found in the distant North." lucidchartObjectId="IQ7ZMgwdVL4b" id="LoIF5hxym2Nn-gZrOM74-26">
          <mxCell style="html=1;overflow=block;blockSpacing=1;whiteSpace=wrap;;whiteSpace=wrap;fontSize=13;fontColor=#333333;align=center;spacing=9;strokeColor=#333333;strokeOpacity=100;fillOpacity=100;rounded=1;absoluteArcSize=1;arcSize=12;fillColor=#ffffff;strokeWidth=0.8;" parent="1" vertex="1">
            <mxGeometry x="1240" y="1250" width="240" height="420" as="geometry" />
          </mxCell>
        </UserObject>
        <mxCell id="LoIF5hxym2Nn-gZrOM74-27" value="&lt;div&gt;&quot;The Mountain&quot; is a smuggler&#39;s route right through the heart of the Republic, so named because of the difficulty of the &quot;ascent&quot; portion, and the fact that once you&#39;re on it you can&#39;t expect rescue - too far from friendly territory.&lt;/div&gt;&lt;div&gt;&lt;br&gt;&lt;/div&gt;&lt;div&gt;Completion of the route is the mark of a seasoned smuggler.&lt;br&gt;&lt;/div&gt;" style="rounded=1;whiteSpace=wrap;html=1;" parent="1" vertex="1">
          <mxGeometry x="890" y="1250" width="330" height="100" as="geometry" />
        </mxCell>
        <mxCell id="LoIF5hxym2Nn-gZrOM74-48" value="&lt;div&gt;Accepted by the Raiders. You are given trust, but little respect and no rank. If asked, Amity will intercede with her Militia contacts to have your record cleared - but only this once.&lt;br&gt;&lt;/div&gt;&lt;div&gt;&lt;br&gt;&lt;/div&gt;&lt;div&gt;Add Prize Rumor and Smuggling Opportunity missions to spaceports throughout the eastern FW, and some pirate planets. &lt;br&gt;&lt;/div&gt;" style="shape=process;whiteSpace=wrap;html=1;backgroundOutline=1;" parent="1" vertex="1">
          <mxGeometry x="40" y="660" width="600" height="80" as="geometry" />
        </mxCell>
        <mxCell id="LoIF5hxym2Nn-gZrOM74-53" style="edgeStyle=orthogonalEdgeStyle;rounded=0;orthogonalLoop=1;jettySize=auto;html=1;exitX=0.5;exitY=1;exitDx=0;exitDy=0;entryX=0.25;entryY=0;entryDx=0;entryDy=0;" parent="1" source="LoIF5hxym2Nn-gZrOM74-36" target="LoIF5hxym2Nn-gZrOM74-48" edge="1">
          <mxGeometry relative="1" as="geometry" />
        </mxCell>
        <mxCell id="LoIF5hxym2Nn-gZrOM74-54" style="edgeStyle=orthogonalEdgeStyle;rounded=0;orthogonalLoop=1;jettySize=auto;html=1;exitX=0.5;exitY=1;exitDx=0;exitDy=0;entryX=0.75;entryY=0;entryDx=0;entryDy=0;" parent="1" source="LoIF5hxym2Nn-gZrOM74-42" target="LoIF5hxym2Nn-gZrOM74-48" edge="1">
          <mxGeometry relative="1" as="geometry" />
        </mxCell>
        <UserObject label="&lt;div&gt;Xalis De La Cruz is a younger captain among the Raiders, a wanted man in most of the Republic, impetuous but (generally) well-meaning.&lt;/div&gt;&lt;div&gt;&lt;br&gt;&lt;/div&gt;&lt;div&gt;Amity has taken him under her wing, but the general consensus among Raiders is that this man will - sooner or later - either end up killing himself or somebody too important for them to continue protecting him. A rage born of unfinished business simmers beneath his smile.&lt;br&gt;&lt;/div&gt;" lucidchartObjectId="Ohl3puxaSGho" id="LoIF5hxym2Nn-gZrOM74-64">
          <mxCell style="html=1;overflow=block;blockSpacing=1;whiteSpace=wrap;;whiteSpace=wrap;fontSize=13;fontColor=#333333;align=center;spacing=3.8;strokeColor=#333333;strokeOpacity=100;fillOpacity=100;rounded=1;absoluteArcSize=1;arcSize=12;fillColor=#ffffff;strokeWidth=0.8;" parent="1" vertex="1">
            <mxGeometry x="290" y="1540" width="330" height="152" as="geometry" />
          </mxCell>
        </UserObject>
      </root>
    </mxGraphModel>
  </diagram>
</mxfile>
